<?xml version="1.0" standalone="no"?>
<!DOCTYPE svg PUBLIC "-//W3C//DTD SVG 20010904//EN"
 "http://www.w3.org/TR/2001/REC-SVG-20010904/DTD/svg10.dtd">
<svg version="1.0" xmlns="http://www.w3.org/2000/svg"
 width="612.000000pt" height="612.000000pt" viewBox="0 0 612.000000 612.000000"
 preserveAspectRatio="xMidYMid meet">

<g transform="translate(0.000000,612.000000) scale(0.100000,-0.100000)"
fill="#000000" stroke="none">
<path d="M1560 4043 c0 -63 -70 -113 -158 -113 -50 0 -99 -25 -116 -59 -10
-19 -16 -56 -16 -99 0 -38 -3 -72 -6 -75 -4 -4 -23 7 -42 24 -67 59 -143 79
-404 108 -53 6 -120 20 -148 31 l-51 20 12 -23 c45 -85 142 -197 214 -246 82
-56 215 -95 366 -107 l86 -7 61 -86 c208 -294 534 -534 881 -650 212 -71 505
-109 758 -97 128 5 354 29 394 41 9 3 20 27 27 63 7 34 24 75 42 99 35 47 117
93 164 92 29 -1 28 -2 -13 -16 -26 -9 -65 -36 -91 -62 -56 -56 -75 -113 -65
-198 l6 -58 -98 -69 c-54 -38 -204 -143 -335 -233 -130 -90 -239 -171 -243
-181 -13 -35 22 -44 140 -38 242 12 476 113 671 289 83 75 164 190 235 331 38
76 70 130 78 128 7 -1 108 48 224 110 l212 112 95 1 c119 0 151 17 195 102 36
69 134 149 265 217 141 73 213 91 365 91 113 0 136 -3 178 -22 44 -20 46 -21
37 -3 -17 32 -83 80 -140 101 -120 46 -224 60 -460 66 -368 9 -568 -22 -1245
-191 -453 -113 -698 -166 -895 -191 -600 -76 -1126 36 -1301 278 l-27 38 77
77 c121 120 160 223 127 333 -9 30 -25 65 -36 79 l-20 25 0 -32z m2952 -760
c38 -34 12 -93 -41 -93 -36 0 -51 17 -51 57 0 49 54 71 92 36z"/>
<path d="M4452 3268 c-31 -31 10 -75 43 -48 19 16 19 30 0 30 -8 0 -15 7 -15
15 0 18 -12 19 -28 3z"/>
<path d="M5130 3446 c-125 -28 -223 -74 -345 -161 -89 -64 -99 -75 -121 -125
-39 -86 -86 -112 -224 -120 l-105 -6 -216 -115 -217 -114 -30 -67 c-21 -47
-26 -68 -17 -68 29 0 218 53 325 91 113 40 415 183 538 254 34 20 62 34 62 31
0 -11 -215 -133 -365 -206 -180 -88 -329 -144 -488 -185 l-107 -28 -31 -50
c-16 -27 -28 -51 -25 -54 8 -8 214 47 382 103 199 66 406 153 581 243 73 39
133 68 133 66 0 -2 -45 -29 -100 -60 -241 -136 -552 -260 -885 -355 -125 -36
-156 -49 -185 -76 -18 -18 -31 -36 -28 -39 9 -9 181 23 325 61 293 77 629 226
898 399 97 62 118 73 85 46 -48 -40 -256 -165 -395 -237 -302 -157 -601 -256
-926 -309 -20 -3 -47 -15 -60 -26 l-24 -20 55 6 c682 82 1258 351 1741 813
106 101 136 143 146 206 4 29 1 37 -28 59 -74 55 -215 72 -349 43z m-270 -351
c0 -2 -10 -9 -22 -15 -22 -11 -22 -10 -4 4 21 17 26 19 26 11z m65 -121 c-26
-20 -55 -36 -55 -30 0 5 63 46 70 46 3 -1 -4 -8 -15 -16z m135 2 c0 -2 -8 -10
-17 -17 -16 -13 -17 -12 -4 4 13 16 21 21 21 13z"/>
<path d="M2725 3403 c18 -45 24 -78 18 -101 -6 -24 -5 -25 43 -18 120 17 294
50 294 55 0 8 -299 81 -334 81 -23 0 -27 -3 -21 -17z"/>
<path d="M1320 3397 c0 -20 65 -180 99 -243 223 -414 673 -692 1296 -803 191
-34 237 -36 265 -13 l24 20 -64 7 c-108 12 -420 65 -505 86 -96 24 -268 79
-262 85 2 2 37 -7 77 -21 112 -38 283 -71 515 -99 116 -14 225 -28 244 -31 21
-3 45 2 63 13 37 22 36 32 -4 32 -122 0 -532 63 -712 110 -108 28 -332 107
-324 115 2 2 42 -10 88 -26 202 -72 562 -142 815 -159 77 -6 157 -13 177 -16
32 -5 45 0 98 38 l62 43 -216 7 c-261 8 -478 30 -645 64 -129 26 -347 93 -391
120 -17 10 -18 13 -5 8 323 -113 574 -153 1018 -161 l288 -5 55 36 c39 26 54
42 50 52 -3 9 -6 17 -6 18 0 1 -55 -7 -122 -18 -96 -15 -179 -19 -378 -20
-277 -1 -384 10 -576 60 -370 96 -718 323 -957 624 -70 89 -67 85 -67 77z
m665 -655 c-3 -3 -11 0 -18 7 -9 10 -8 11 6 5 10 -3 15 -9 12 -12z"/>
<path d="M4060 2375 l-125 -33 -41 -89 c-22 -48 -53 -107 -67 -130 -48 -76
-32 -91 51 -49 91 46 208 152 288 260 24 32 44 62 44 67 0 12 -9 11 -150 -26z"/>
</g>
</svg>
