<?xml version="1.0" standalone="no"?>
<!DOCTYPE svg PUBLIC "-//W3C//DTD SVG 20010904//EN"
 "http://www.w3.org/TR/2001/REC-SVG-20010904/DTD/svg10.dtd">
<svg version="1.0" xmlns="http://www.w3.org/2000/svg"
 width="1024.000000pt" height="1024.000000pt" viewBox="0 0 1024.000000 1024.000000"
 preserveAspectRatio="xMidYMid meet">

<g transform="translate(0.000000,1024.000000) scale(0.100000,-0.100000)"
fill="#000000" stroke="none">
<path d="M4900 7179 c-376 -43 -771 -200 -1064 -423 -421 -318 -724 -791 -832
-1298 -35 -166 -45 -497 -20 -688 32 -246 101 -466 213 -680 255 -489 605
-819 1083 -1023 285 -121 546 -177 829 -177 346 0 672 75 971 224 216 108 404
236 564 386 73 69 256 277 256 291 0 26 -239 -5 -365 -47 -215 -72 -386 -165
-740 -402 -250 -168 -263 -175 -335 -188 -75 -15 -450 -32 -450 -21 0 3 48 22
108 41 122 41 340 158 491 265 585 413 931 560 1295 549 l110 -3 18 30 c71
112 163 329 206 482 l20 71 -22 6 c-11 3 -59 6 -106 6 l-85 0 -35 -67 -35 -66
-55 -4 c-106 -8 -369 -78 -580 -155 -47 -17 -155 -65 -240 -107 -172 -84 -186
-90 -151 -64 14 10 34 26 45 36 l21 18 -22 -10 c-28 -14 -36 -14 -27 1 4 7 3
8 -5 4 -6 -4 -8 -12 -5 -18 4 -6 2 -8 -4 -4 -15 9 -61 -20 -300 -188 -282
-199 -332 -232 -492 -325 -232 -135 -420 -209 -640 -252 -200 -38 -387 -25
-213 15 150 35 397 135 526 212 141 85 336 221 568 395 236 178 504 362 619
426 221 122 376 191 575 256 224 73 395 101 580 95 l110 -3 7 50 c14 101 9
441 -8 557 -33 227 -105 449 -219 673 -67 132 -183 321 -191 312 -3 -2 1 -28
7 -57 17 -81 6 -298 -20 -385 -80 -266 -275 -503 -558 -677 -48 -30 -178 -101
-288 -157 -326 -168 -606 -366 -781 -553 -33 -35 -113 -127 -179 -203 -261
-307 -408 -432 -645 -551 -160 -80 -391 -144 -520 -144 -43 0 -49 4 -118 73
l-73 74 103 6 c260 17 522 114 736 272 92 68 252 229 417 420 76 88 174 198
219 244 45 46 76 85 69 88 -6 2 -43 26 -81 53 -126 88 -244 264 -289 430 -27
100 -25 292 6 390 47 154 126 263 254 354 142 101 347 135 522 87 222 -61 388
-198 492 -406 l45 -90 -4 85 c-9 166 -89 336 -228 483 -179 190 -442 316 -694
335 -479 35 -890 -146 -1197 -527 -78 -97 -168 -264 -233 -434 -51 -131 -114
-260 -159 -327 -108 -159 -298 -312 -422 -340 l-34 -8 -7 67 c-16 146 36 493
102 684 117 337 345 653 640 889 364 290 841 439 1305 408 555 -37 1083 -315
1402 -738 l42 -56 3 87 c5 154 -45 298 -140 402 -28 30 -96 89 -152 129 -381
278 -816 419 -1284 415 -86 -1 -191 -5 -232 -10z m423 -790 c113 -17 105 -24
-26 -25 -121 0 -226 -19 -329 -59 -21 -8 -45 -12 -55 -9 -11 4 -14 3 -6 -3 7
-5 -3 -14 -30 -25 l-42 -18 25 20 25 20 -32 -11 c-18 -6 -30 -15 -27 -20 3 -5
-2 -6 -10 -3 -8 3 -41 -9 -73 -28 -32 -18 -66 -36 -75 -40 -39 -16 -143 -93
-208 -155 -123 -116 -213 -246 -316 -461 -104 -216 -166 -316 -223 -362 -48
-37 -56 -38 -37 -2 8 15 40 103 70 195 97 290 197 464 367 636 187 190 391
298 649 345 94 17 259 19 353 5z m-416 -341 c-58 -73 -106 -151 -142 -234 -19
-43 -35 -71 -35 -61 0 10 9 36 20 57 18 35 18 40 5 40 -9 0 -13 5 -10 10 4 6
11 8 16 5 8 -5 11 2 8 21 0 3 7 16 15 30 29 43 10 26 -33 -30 -37 -50 -61 -95
-105 -197 -22 -51 -42 -146 -56 -264 -33 -290 -126 -500 -307 -695 -66 -71
-199 -167 -304 -221 -133 -67 -326 -102 -524 -97 l-120 3 -27 55 c-15 30 -27
60 -27 66 -1 7 23 8 77 2 154 -17 369 22 526 97 179 85 347 247 450 437 20 36
72 174 116 306 110 336 166 440 309 574 58 55 166 138 179 138 2 0 -12 -19
-31 -42z m2154 -518 c1 -94 -2 -113 -28 -180 -37 -97 -99 -187 -188 -275 -111
-111 -255 -197 -510 -305 -103 -43 -333 -156 -395 -193 -119 -71 -296 -190
-365 -246 -125 -102 -253 -209 -335 -281 -185 -163 -296 -243 -416 -296 -52
-24 -255 -107 -294 -121 -8 -3 21 17 65 45 166 104 298 221 530 467 77 82 176
187 220 233 227 239 479 398 965 607 169 72 272 126 365 188 170 115 301 293
352 477 l18 65 7 -40 c5 -22 9 -87 9 -145z m-2303 -624 c-7 -213 -42 -316
-165 -481 -144 -195 -410 -369 -647 -425 -92 -22 -234 -40 -316 -40 l-56 0
-57 74 c-31 41 -57 77 -57 80 0 3 58 6 128 6 72 0 170 7 223 16 341 58 648
291 817 621 55 108 112 263 112 309 1 26 2 27 11 10 8 -12 10 -70 7 -170z"/>
<path d="M5352 5765 c-58 -25 -92 -55 -122 -108 -54 -94 -37 -219 41 -296 132
-132 362 -68 415 116 33 114 -32 239 -151 289 -44 18 -140 18 -183 -1z"/>
</g>
</svg>
